<svg xmlns="http://www.w3.org/2000/svg" viewBox="0 0 388.65 352.42"><defs><style>.a{fill:#f0ad4d;}</style></defs><title>icon-warning</title><path class="a" d="M483.88,514.42L347.72,278.58c-22.24-39-78.48-39-100.64,0L110.84,514.42c-22.24,39,5.44,87.36,50.32,87.36H433.08c44.88,0,73-48.88,50.8-87.36h0Zm-186.56,35a21.68,21.68,0,0,1,0-43.36,21.28,21.28,0,0,1,21.2,22.24c0.56,11.28-9.84,21.12-21.2,21.12h0ZM317.08,409.3c-1,16.8-2,33.52-3,50.32-0.48,5.44-.48,10.4-0.48,15.76a16.33,16.33,0,0,1-16.32,15.76A16,16,0,0,1,281,475.85c-1.44-26.16-3-51.84-4.4-78-0.48-6.88-1-13.84-1.52-20.72,0-11.36,6.4-20.72,16.8-23.68a21.75,21.75,0,0,1,25.2,12.32,25.84,25.84,0,0,1,2,10.88c-0.48,11-1.52,21.84-2,32.64h0Zm0,0" transform="translate(-103 -249.36)"/></svg>